# xmcd CD database file
#
# Track frame offsets:
#	150
#	13769
#	25328
#	39452
#	53302
#	69662
#	81809
#	94918
#	108444
#	121953
#	137894
#	149254
#
# Disc length: 2178 seconds
#
# Revision: 0
# Processed by: cddbd v1.5.2PL0 Copyright (c) Steve Scherf et al.
# Submitted via: CDex 1.51
#
DISCID=9f08800c
DTITLE=marco antonio vazquez - coleccion
DYEAR=1900
DGENRE=Blues
TTITLE0=que sabes tú
TTITLE1=sombras
TTITLE2=marchita el alma
TTITLE3=tristes recuerdos
TTITLE4=uno
TTITLE5=tú eres mi destino
TTITLE6=mujer
TTITLE7=que te vaya bonito
TTITLE8=cosas como tú
TTITLE9=antigua
TTITLE10=angel celeste
TTITLE11=quince primaveras
EXTD=
EXTT0=
EXTT1=
EXTT2=
EXTT3=
EXTT4=
EXTT5=
EXTT6=
EXTT7=
EXTT8=
EXTT9=
EXTT10=
EXTT11=
PLAYORDER=
